<?xml version="1.0" encoding="utf-8" standalone="no"?>
<!DOCTYPE svg PUBLIC "-//W3C//DTD SVG 1.1//EN"
  "http://www.w3.org/Graphics/SVG/1.1/DTD/svg11.dtd">
<svg xmlns:xlink="http://www.w3.org/1999/xlink" width="460.8pt" height="345.6pt" viewBox="0 0 460.8 345.6" xmlns="http://www.w3.org/2000/svg" version="1.1">
 <metadata>
  <rdf:RDF xmlns:dc="http://purl.org/dc/elements/1.1/" xmlns:cc="http://creativecommons.org/ns#" xmlns:rdf="http://www.w3.org/1999/02/22-rdf-syntax-ns#">
   <cc:Work>
    <dc:type rdf:resource="http://purl.org/dc/dcmitype/StillImage"/>
    <dc:date>2023-07-27T13:29:36.607933</dc:date>
    <dc:format>image/svg+xml</dc:format>
    <dc:creator>
     <cc:Agent>
      <dc:title>Matplotlib v3.7.1, https://matplotlib.org/</dc:title>
     </cc:Agent>
    </dc:creator>
   </cc:Work>
  </rdf:RDF>
 </metadata>
 <defs>
  <style type="text/css">*{stroke-linejoin: round; stroke-linecap: butt}</style>
 </defs>
 <g id="figure_1">
  <g id="patch_1">
   <path d="M 0 345.6 
L 460.8 345.6 
L 460.8 0 
L 0 0 
z
" style="fill: #ffffff"/>
  </g>
  <g id="axes_1">
   <g id="patch_2">
    <path d="M 55.085756 293.281683 
L 440.8 293.281683 
L 440.8 34.30218 
L 55.085756 34.30218 
z
" style="fill: #ffffff"/>
   </g>
   <g id="matplotlib.axis_1">
    <g id="xtick_1">
     <g id="line2d_1">
      <defs>
       <path id="mdf3a5d18aa" d="M 0 0 
L 0 6 
" style="stroke: #262626; stroke-width: 0.8"/>
      </defs>
      <g>
       <use xlink:href="#mdf3a5d18aa" x="63.199486" y="293.281683" style="fill: #262626; stroke: #262626; stroke-width: 0.8"/>
      </g>
     </g>
     <g id="text_1">
      <!-- $\mathdefault{30.80}$ -->
      <g style="fill: #262626" transform="translate(51.853111 309.700182) scale(0.1 -0.1)">
       <defs>
        <path id="CMR17-33" d="M 1414 2157 
C 1984 2157 2234 1662 2234 1090 
C 2234 320 1824 25 1453 25 
C 1114 25 563 194 390 693 
C 422 680 454 680 486 680 
C 640 680 755 782 755 948 
C 755 1133 614 1216 486 1216 
C 378 1216 211 1165 211 926 
C 211 335 787 -128 1466 -128 
C 2176 -128 2720 430 2720 1085 
C 2720 1707 2208 2157 1600 2227 
C 2086 2328 2554 2756 2554 3329 
C 2554 3820 2048 4179 1472 4179 
C 890 4179 378 3829 378 3329 
C 378 3110 544 3072 627 3072 
C 762 3072 877 3155 877 3321 
C 877 3486 762 3569 627 3569 
C 602 3569 570 3569 544 3557 
C 730 3959 1235 4032 1459 4032 
C 1683 4032 2106 3925 2106 3320 
C 2106 3143 2080 2828 1862 2550 
C 1670 2304 1453 2304 1242 2284 
C 1210 2284 1062 2269 1037 2269 
C 992 2263 966 2257 966 2208 
C 966 2163 973 2157 1101 2157 
L 1414 2157 
z
" transform="scale(0.015625)"/>
        <path id="CMR17-30" d="M 2688 2025 
C 2688 2416 2682 3080 2413 3591 
C 2176 4039 1798 4198 1466 4198 
C 1158 4198 768 4058 525 3597 
C 269 3118 243 2524 243 2025 
C 243 1661 250 1106 448 619 
C 723 -39 1216 -128 1466 -128 
C 1760 -128 2208 -7 2470 600 
C 2662 1042 2688 1559 2688 2025 
z
M 1466 -26 
C 1056 -26 813 325 723 812 
C 653 1188 653 1738 653 2096 
C 653 2588 653 2997 736 3387 
C 858 3929 1216 4096 1466 4096 
C 1728 4096 2067 3923 2189 3400 
C 2272 3036 2278 2607 2278 2096 
C 2278 1680 2278 1169 2202 792 
C 2067 95 1690 -26 1466 -26 
z
" transform="scale(0.015625)"/>
        <path id="CMMI12-3a" d="M 1178 307 
C 1178 492 1024 619 870 619 
C 685 619 557 466 557 313 
C 557 128 710 0 864 0 
C 1050 0 1178 153 1178 307 
z
" transform="scale(0.015625)"/>
        <path id="CMR17-38" d="M 1741 2264 
C 2144 2467 2554 2773 2554 3263 
C 2554 3841 1990 4179 1472 4179 
C 890 4179 378 3759 378 3180 
C 378 3021 416 2747 666 2505 
C 730 2442 998 2251 1171 2130 
C 883 1983 211 1634 211 934 
C 211 279 838 -128 1459 -128 
C 2144 -128 2720 362 2720 1010 
C 2720 1590 2330 1857 2074 2029 
L 1741 2264 
z
M 902 2822 
C 851 2854 595 3051 595 3351 
C 595 3739 998 4032 1459 4032 
C 1965 4032 2336 3676 2336 3262 
C 2336 2669 1670 2331 1638 2331 
C 1632 2331 1626 2331 1574 2370 
L 902 2822 
z
M 2080 1519 
C 2176 1449 2483 1240 2483 851 
C 2483 381 2010 25 1472 25 
C 890 25 448 438 448 940 
C 448 1443 838 1862 1280 2060 
L 2080 1519 
z
" transform="scale(0.015625)"/>
       </defs>
       <use xlink:href="#CMR17-33" transform="scale(0.996264)"/>
       <use xlink:href="#CMR17-30" transform="translate(45.690477 0) scale(0.996264)"/>
       <use xlink:href="#CMMI12-3a" transform="translate(91.380954 0) scale(0.996264)"/>
       <use xlink:href="#CMR17-38" transform="translate(118.478131 0) scale(0.996264)"/>
       <use xlink:href="#CMR17-30" transform="translate(164.168608 0) scale(0.996264)"/>
      </g>
     </g>
    </g>
    <g id="xtick_2">
     <g id="line2d_2">
      <g>
       <use xlink:href="#mdf3a5d18aa" x="133.398246" y="293.281683" style="fill: #262626; stroke: #262626; stroke-width: 0.8"/>
      </g>
     </g>
     <g id="text_2">
      <!-- $\mathdefault{30.85}$ -->
      <g style="fill: #262626" transform="translate(122.051871 309.700182) scale(0.1 -0.1)">
       <defs>
        <path id="CMR17-35" d="M 730 3692 
C 794 3666 1056 3584 1325 3584 
C 1920 3584 2246 3911 2432 4100 
C 2432 4157 2432 4192 2394 4192 
C 2387 4192 2374 4192 2323 4163 
C 2099 4058 1837 3973 1517 3973 
C 1325 3973 1037 3999 723 4139 
C 653 4171 640 4171 634 4171 
C 602 4171 595 4164 595 4037 
L 595 2203 
C 595 2089 595 2057 659 2057 
C 691 2057 704 2070 736 2114 
C 941 2401 1222 2522 1542 2522 
C 1766 2522 2246 2382 2246 1289 
C 2246 1085 2246 715 2054 421 
C 1894 159 1645 25 1370 25 
C 947 25 518 320 403 814 
C 429 807 480 795 506 795 
C 589 795 749 840 749 1038 
C 749 1210 627 1280 506 1280 
C 358 1280 262 1190 262 1011 
C 262 454 704 -128 1382 -128 
C 2042 -128 2669 440 2669 1264 
C 2669 2030 2170 2624 1549 2624 
C 1222 2624 947 2503 730 2274 
L 730 3692 
z
" transform="scale(0.015625)"/>
       </defs>
       <use xlink:href="#CMR17-33" transform="scale(0.996264)"/>
       <use xlink:href="#CMR17-30" transform="translate(45.690477 0) scale(0.996264)"/>
       <use xlink:href="#CMMI12-3a" transform="translate(91.380954 0) scale(0.996264)"/>
       <use xlink:href="#CMR17-38" transform="translate(118.478131 0) scale(0.996264)"/>
       <use xlink:href="#CMR17-35" transform="translate(164.168608 0) scale(0.996264)"/>
      </g>
     </g>
    </g>
    <g id="xtick_3">
     <g id="line2d_3">
      <g>
       <use xlink:href="#mdf3a5d18aa" x="203.597007" y="293.281683" style="fill: #262626; stroke: #262626; stroke-width: 0.8"/>
      </g>
     </g>
     <g id="text_3">
      <!-- $\mathdefault{30.90}$ -->
      <g style="fill: #262626" transform="translate(192.250632 309.700182) scale(0.1 -0.1)">
       <defs>
        <path id="CMR17-39" d="M 2253 1864 
C 2253 464 1670 31 1190 31 
C 1043 31 685 31 538 294 
C 704 268 826 357 826 518 
C 826 692 685 749 595 749 
C 538 749 365 723 365 506 
C 365 71 742 -128 1203 -128 
C 1939 -128 2688 674 2688 2073 
C 2688 3817 1971 4179 1485 4179 
C 851 4179 243 3628 243 2778 
C 243 1991 762 1408 1414 1408 
C 1952 1408 2189 1903 2253 2112 
L 2253 1864 
z
M 1427 1510 
C 1254 1510 1011 1542 813 1922 
C 678 2169 678 2461 678 2771 
C 678 3146 678 3405 858 3684 
C 947 3817 1114 4032 1485 4032 
C 2240 4032 2240 2885 2240 2632 
C 2240 2182 2035 1510 1427 1510 
z
" transform="scale(0.015625)"/>
       </defs>
       <use xlink:href="#CMR17-33" transform="scale(0.996264)"/>
       <use xlink:href="#CMR17-30" transform="translate(45.690477 0) scale(0.996264)"/>
       <use xlink:href="#CMMI12-3a" transform="translate(91.380954 0) scale(0.996264)"/>
       <use xlink:href="#CMR17-39" transform="translate(118.478131 0) scale(0.996264)"/>
       <use xlink:href="#CMR17-30" transform="translate(164.168608 0) scale(0.996264)"/>
      </g>
     </g>
    </g>
    <g id="xtick_4">
     <g id="line2d_4">
      <g>
       <use xlink:href="#mdf3a5d18aa" x="273.795767" y="293.281683" style="fill: #262626; stroke: #262626; stroke-width: 0.8"/>
      </g>
     </g>
     <g id="text_4">
      <!-- $\mathdefault{30.95}$ -->
      <g style="fill: #262626" transform="translate(262.449392 309.700182) scale(0.1 -0.1)">
       <use xlink:href="#CMR17-33" transform="scale(0.996264)"/>
       <use xlink:href="#CMR17-30" transform="translate(45.690477 0) scale(0.996264)"/>
       <use xlink:href="#CMMI12-3a" transform="translate(91.380954 0) scale(0.996264)"/>
       <use xlink:href="#CMR17-39" transform="translate(118.478131 0) scale(0.996264)"/>
       <use xlink:href="#CMR17-35" transform="translate(164.168608 0) scale(0.996264)"/>
      </g>
     </g>
    </g>
    <g id="xtick_5">
     <g id="line2d_5">
      <g>
       <use xlink:href="#mdf3a5d18aa" x="343.994527" y="293.281683" style="fill: #262626; stroke: #262626; stroke-width: 0.8"/>
      </g>
     </g>
     <g id="text_5">
      <!-- $\mathdefault{31.00}$ -->
      <g style="fill: #262626" transform="translate(332.648153 309.700182) scale(0.1 -0.1)">
       <defs>
        <path id="CMR17-31" d="M 1702 4058 
C 1702 4192 1696 4192 1606 4192 
C 1357 3916 979 3827 621 3827 
C 602 3827 570 3827 563 3808 
C 557 3795 557 3782 557 3648 
C 755 3648 1088 3686 1344 3839 
L 1344 461 
C 1344 236 1331 160 781 160 
L 589 160 
L 589 0 
C 896 0 1216 0 1523 0 
C 1830 0 2150 0 2458 0 
L 2458 160 
L 2266 160 
C 1715 160 1702 230 1702 458 
L 1702 4058 
z
" transform="scale(0.015625)"/>
       </defs>
       <use xlink:href="#CMR17-33" transform="scale(0.996264)"/>
       <use xlink:href="#CMR17-31" transform="translate(45.690477 0) scale(0.996264)"/>
       <use xlink:href="#CMMI12-3a" transform="translate(91.380954 0) scale(0.996264)"/>
       <use xlink:href="#CMR17-30" transform="translate(118.478131 0) scale(0.996264)"/>
       <use xlink:href="#CMR17-30" transform="translate(164.168608 0) scale(0.996264)"/>
      </g>
     </g>
    </g>
    <g id="xtick_6">
     <g id="line2d_6">
      <g>
       <use xlink:href="#mdf3a5d18aa" x="414.193288" y="293.281683" style="fill: #262626; stroke: #262626; stroke-width: 0.8"/>
      </g>
     </g>
     <g id="text_6">
      <!-- $\mathdefault{31.05}$ -->
      <g style="fill: #262626" transform="translate(402.846913 309.700182) scale(0.1 -0.1)">
       <use xlink:href="#CMR17-33" transform="scale(0.996264)"/>
       <use xlink:href="#CMR17-31" transform="translate(45.690477 0) scale(0.996264)"/>
       <use xlink:href="#CMMI12-3a" transform="translate(91.380954 0) scale(0.996264)"/>
       <use xlink:href="#CMR17-30" transform="translate(118.478131 0) scale(0.996264)"/>
       <use xlink:href="#CMR17-35" transform="translate(164.168608 0) scale(0.996264)"/>
      </g>
     </g>
    </g>
    <g id="text_7">
     <!-- Power (mW) -->
     <g style="fill: #262626" transform="translate(221.168229 323.10934) scale(0.1 -0.1)">
      <defs>
       <path id="CMSS17-50" d="M 2106 1856 
C 2874 1856 3501 2453 3501 3158 
C 3501 3850 2899 4453 2067 4453 
L 570 4453 
L 570 0 
L 1107 0 
L 1107 1856 
L 2106 1856 
z
M 1926 4096 
C 2669 4096 2995 3627 2995 3157 
C 2995 2720 2694 2226 1926 2226 
L 1094 2226 
L 1094 4096 
L 1926 4096 
z
" transform="scale(0.015625)"/>
       <path id="CMSS17-6f" d="M 2829 1356 
C 2829 2176 2221 2816 1504 2816 
C 768 2816 173 2157 173 1356 
C 173 544 787 -64 1498 -64 
C 2227 -64 2829 563 2829 1356 
z
M 1504 337 
C 1050 337 659 709 659 1408 
C 659 2151 1114 2427 1498 2427 
C 1914 2427 2342 2126 2342 1408 
C 2342 683 1926 337 1504 337 
z
" transform="scale(0.015625)"/>
       <path id="CMSS17-77" d="M 4013 2752 
L 3526 2752 
L 3187 1601 
C 3117 1358 2918 685 2893 371 
L 2886 371 
C 2874 564 2765 1024 2586 1633 
L 2259 2752 
L 1818 2752 
L 1498 1658 
C 1338 1101 1216 627 1203 371 
L 1197 371 
C 1171 749 909 1633 870 1773 
L 582 2752 
L 83 2752 
L 915 0 
L 1402 0 
C 1734 1096 1990 1943 2010 2370 
C 2022 2160 2131 1707 2195 1484 
L 2618 0 
L 3181 0 
L 4013 2752 
z
" transform="scale(0.015625)"/>
       <path id="CMSS17-65" d="M 2502 1377 
C 2502 1590 2490 2003 2285 2345 
C 2061 2713 1696 2816 1421 2816 
C 755 2816 192 2188 192 1375 
C 192 582 774 -64 1510 -64 
C 1798 -64 2150 19 2470 248 
C 2470 274 2458 414 2451 420 
C 2451 433 2432 630 2432 656 
C 2125 407 1773 325 1517 325 
C 1107 325 666 667 646 1377 
L 2502 1377 
z
M 698 1728 
C 781 2084 1062 2421 1421 2421 
C 1517 2421 1965 2421 2080 1728 
L 698 1728 
z
" transform="scale(0.015625)"/>
       <path id="CMSS17-72" d="M 954 1363 
C 954 1965 1395 2368 1958 2368 
L 1958 2789 
C 1549 2789 1165 2585 934 2253 
L 934 2758 
L 480 2758 
L 480 0 
L 954 0 
L 954 1363 
z
" transform="scale(0.015625)"/>
       <path id="CMSS17-28" d="M 1613 4768 
C 1267 4417 474 3601 474 1588 
C 474 -433 1267 -1243 1613 -1600 
L 2003 -1600 
C 1216 -784 960 357 960 1581 
C 960 2798 1203 3946 2003 4768 
L 1613 4768 
z
" transform="scale(0.015625)"/>
       <path id="CMSS17-6d" d="M 4288 1877 
C 4288 2308 4179 2816 3462 2816 
C 2982 2816 2694 2516 2566 2331 
C 2451 2670 2182 2816 1798 2816 
C 1363 2816 1088 2568 941 2389 
L 941 2758 
L 474 2758 
L 474 0 
L 960 0 
L 960 1559 
C 960 1939 1101 2428 1555 2428 
C 2138 2428 2138 2016 2138 1829 
L 2138 0 
L 2624 0 
L 2624 1559 
C 2624 1939 2765 2428 3219 2428 
C 3802 2428 3802 2016 3802 1829 
L 3802 0 
L 4288 0 
L 4288 1877 
z
" transform="scale(0.015625)"/>
       <path id="CMSS17-57" d="M 5581 4416 
L 5094 4416 
L 4557 2437 
C 4474 2118 4397 1801 4320 1482 
C 4205 1011 4122 681 4109 515 
L 4102 515 
C 4090 687 4006 1049 3904 1457 
C 3827 1795 3744 2131 3654 2462 
L 3123 4416 
L 2586 4416 
L 2080 2562 
L 1824 1549 
C 1632 747 1626 632 1613 505 
L 1606 505 
C 1606 543 1581 753 1402 1498 
C 1312 1868 1222 2244 1126 2601 
L 634 4416 
L 83 4416 
L 1299 0 
L 1830 0 
L 2336 1839 
L 2592 2851 
C 2765 3564 2803 3742 2816 3901 
L 2822 3901 
C 2822 3876 2880 3474 3130 2545 
L 3808 0 
L 4365 0 
L 5581 4416 
z
" transform="scale(0.015625)"/>
       <path id="CMSS17-29" d="M 723 -1600 
C 1069 -1249 1862 -433 1862 1581 
C 1862 3601 1069 4411 723 4768 
L 333 4768 
C 1120 3952 1376 2811 1376 1588 
C 1376 370 1133 -778 333 -1600 
L 723 -1600 
z
" transform="scale(0.015625)"/>
      </defs>
      <use xlink:href="#CMSS17-50" transform="scale(0.996264)"/>
      <use xlink:href="#CMSS17-6f" transform="translate(57.133132 0) scale(0.996264)"/>
      <use xlink:href="#CMSS17-77" transform="translate(101.374302 0) scale(0.996264)"/>
      <use xlink:href="#CMSS17-65" transform="translate(162.591393 0) scale(0.996264)"/>
      <use xlink:href="#CMSS17-72" transform="translate(204.230215 0) scale(0.996264)"/>
      <use xlink:href="#CMSS17-28" transform="translate(267.3691 0) scale(0.996264)"/>
      <use xlink:href="#CMSS17-6d" transform="translate(303.803015 0) scale(0.996264)"/>
      <use xlink:href="#CMSS17-57" transform="translate(378.032269 0) scale(0.996264)"/>
      <use xlink:href="#CMSS17-29" transform="translate(466.274435 0) scale(0.996264)"/>
     </g>
    </g>
   </g>
   <g id="matplotlib.axis_2">
    <g id="ytick_1">
     <g id="line2d_7">
      <defs>
       <path id="m58dad21e47" d="M 0 0 
L -6 0 
" style="stroke: #262626; stroke-width: 0.8"/>
      </defs>
      <g>
       <use xlink:href="#m58dad21e47" x="55.085756" y="257.966296" style="fill: #262626; stroke: #262626; stroke-width: 0.8"/>
      </g>
     </g>
     <g id="text_8">
      <!-- $\mathdefault{0.8}$ -->
      <g style="fill: #262626" transform="translate(32.855677 261.425546) scale(0.1 -0.1)">
       <use xlink:href="#CMR17-30" transform="scale(0.996264)"/>
       <use xlink:href="#CMMI12-3a" transform="translate(45.690477 0) scale(0.996264)"/>
       <use xlink:href="#CMR17-38" transform="translate(72.787654 0) scale(0.996264)"/>
      </g>
     </g>
    </g>
    <g id="ytick_2">
     <g id="line2d_8">
      <g>
       <use xlink:href="#m58dad21e47" x="55.085756" y="210.879114" style="fill: #262626; stroke: #262626; stroke-width: 0.8"/>
      </g>
     </g>
     <g id="text_9">
      <!-- $\mathdefault{0.9}$ -->
      <g style="fill: #262626" transform="translate(32.855677 214.338363) scale(0.1 -0.1)">
       <use xlink:href="#CMR17-30" transform="scale(0.996264)"/>
       <use xlink:href="#CMMI12-3a" transform="translate(45.690477 0) scale(0.996264)"/>
       <use xlink:href="#CMR17-39" transform="translate(72.787654 0) scale(0.996264)"/>
      </g>
     </g>
    </g>
    <g id="ytick_3">
     <g id="line2d_9">
      <g>
       <use xlink:href="#m58dad21e47" x="55.085756" y="163.791932" style="fill: #262626; stroke: #262626; stroke-width: 0.8"/>
      </g>
     </g>
     <g id="text_10">
      <!-- $\mathdefault{1.0}$ -->
      <g style="fill: #262626" transform="translate(32.855677 167.251181) scale(0.1 -0.1)">
       <use xlink:href="#CMR17-31" transform="scale(0.996264)"/>
       <use xlink:href="#CMMI12-3a" transform="translate(45.690477 0) scale(0.996264)"/>
       <use xlink:href="#CMR17-30" transform="translate(72.787654 0) scale(0.996264)"/>
      </g>
     </g>
    </g>
    <g id="ytick_4">
     <g id="line2d_10">
      <g>
       <use xlink:href="#m58dad21e47" x="55.085756" y="116.704749" style="fill: #262626; stroke: #262626; stroke-width: 0.8"/>
      </g>
     </g>
     <g id="text_11">
      <!-- $\mathdefault{1.1}$ -->
      <g style="fill: #262626" transform="translate(32.855677 120.163998) scale(0.1 -0.1)">
       <use xlink:href="#CMR17-31" transform="scale(0.996264)"/>
       <use xlink:href="#CMMI12-3a" transform="translate(45.690477 0) scale(0.996264)"/>
       <use xlink:href="#CMR17-31" transform="translate(72.787654 0) scale(0.996264)"/>
      </g>
     </g>
    </g>
    <g id="ytick_5">
     <g id="line2d_11">
      <g>
       <use xlink:href="#m58dad21e47" x="55.085756" y="69.617567" style="fill: #262626; stroke: #262626; stroke-width: 0.8"/>
      </g>
     </g>
     <g id="text_12">
      <!-- $\mathdefault{1.2}$ -->
      <g style="fill: #262626" transform="translate(32.855677 73.076816) scale(0.1 -0.1)">
       <defs>
        <path id="CMR17-32" d="M 2669 989 
L 2554 989 
C 2490 536 2438 459 2413 420 
C 2381 369 1920 369 1830 369 
L 602 369 
C 832 619 1280 1072 1824 1597 
C 2214 1967 2669 2402 2669 3035 
C 2669 3790 2067 4224 1395 4224 
C 691 4224 262 3604 262 3030 
C 262 2780 448 2748 525 2748 
C 589 2748 781 2787 781 3010 
C 781 3207 614 3264 525 3264 
C 486 3264 448 3258 422 3245 
C 544 3790 915 4058 1306 4058 
C 1862 4058 2227 3617 2227 3035 
C 2227 2479 1901 2000 1536 1584 
L 262 146 
L 262 0 
L 2515 0 
L 2669 989 
z
" transform="scale(0.015625)"/>
       </defs>
       <use xlink:href="#CMR17-31" transform="scale(0.996264)"/>
       <use xlink:href="#CMMI12-3a" transform="translate(45.690477 0) scale(0.996264)"/>
       <use xlink:href="#CMR17-32" transform="translate(72.787654 0) scale(0.996264)"/>
      </g>
     </g>
    </g>
    <g id="text_13">
     <!-- Counts -->
     <g style="fill: #262626" transform="translate(26.918498 178.320799) rotate(-90) scale(0.1 -0.1)">
      <defs>
       <path id="CMSS17-43" d="M 3501 714 
C 3072 427 2874 344 2355 344 
C 1459 344 934 1303 934 2179 
C 934 3112 1472 4032 2381 4032 
C 2790 4032 3059 3918 3386 3715 
L 3475 4217 
C 3168 4370 2778 4440 2387 4440 
C 1158 4440 397 3316 397 2179 
C 397 927 1299 -64 2323 -64 
C 2874 -64 3066 -19 3539 280 
L 3501 714 
z
" transform="scale(0.015625)"/>
       <path id="CMSS17-75" d="M 2618 2739 
L 2131 2739 
L 2131 972 
C 2131 498 1786 306 1421 306 
C 998 306 960 447 960 709 
L 960 2739 
L 474 2739 
L 474 678 
C 474 179 646 -64 1088 -64 
C 1306 -64 1798 -13 2144 306 
L 2144 0 
L 2618 0 
L 2618 2739 
z
" transform="scale(0.015625)"/>
       <path id="CMSS17-6e" d="M 2618 1877 
C 2618 2283 2522 2816 1798 2816 
C 1389 2816 1120 2606 941 2389 
L 941 2758 
L 474 2758 
L 474 0 
L 960 0 
L 960 1559 
C 960 1964 1114 2428 1549 2428 
C 2112 2428 2131 2048 2131 1829 
L 2131 0 
L 2618 0 
L 2618 1877 
z
" transform="scale(0.015625)"/>
       <path id="CMSS17-74" d="M 1069 2368 
L 1901 2368 
L 1901 2737 
L 1069 2737 
L 1069 3520 
L 614 3520 
L 614 2737 
L 109 2737 
L 109 2368 
L 602 2368 
L 602 749 
C 602 384 685 -64 1107 -64 
C 1427 -64 1722 25 2003 172 
L 1901 548 
C 1747 414 1562 337 1363 337 
C 1082 337 1069 696 1069 856 
L 1069 2368 
z
" transform="scale(0.015625)"/>
       <path id="CMSS17-73" d="M 2061 2627 
C 1683 2807 1389 2807 1197 2807 
C 742 2807 198 2648 198 2003 
C 198 1359 902 1218 1094 1179 
C 1389 1122 1715 1058 1715 740 
C 1715 337 1254 337 1171 337 
C 915 337 563 407 243 638 
L 166 210 
C 531 0 883 -64 1178 -64 
C 1965 -64 2163 416 2163 781 
C 2163 1094 1984 1305 1862 1401 
C 1651 1568 1574 1587 1050 1696 
C 960 1709 646 1779 646 2066 
C 646 2432 1050 2432 1139 2432 
C 1555 2432 1811 2303 1984 2208 
L 2061 2627 
z
" transform="scale(0.015625)"/>
      </defs>
      <use xlink:href="#CMSS17-43" transform="scale(0.996264)"/>
      <use xlink:href="#CMSS17-6f" transform="translate(59.855772 0) scale(0.996264)"/>
      <use xlink:href="#CMSS17-75" transform="translate(106.699395 0) scale(0.996264)"/>
      <use xlink:href="#CMSS17-6e" transform="translate(154.904338 0) scale(0.996264)"/>
      <use xlink:href="#CMSS17-74" transform="translate(203.109281 0) scale(0.996264)"/>
      <use xlink:href="#CMSS17-73" transform="translate(236.940848 0) scale(0.996264)"/>
     </g>
    </g>
   </g>
   <g id="PolyCollection_1">
    <path d="M 72.618221 163.488701 
L 72.618221 164.095162 
L 76.160134 164.110283 
L 79.702046 164.120822 
L 83.243958 164.144723 
L 86.78587 164.195615 
L 90.327783 164.274778 
L 93.869695 164.37028 
L 97.411607 164.463945 
L 100.953519 164.542451 
L 104.495432 164.607242 
L 108.037344 164.678605 
L 111.579256 164.791134 
L 115.121168 164.980827 
L 118.663081 165.26879 
L 122.204993 165.650879 
L 125.746905 166.101637 
L 129.288817 166.592525 
L 132.83073 167.114134 
L 136.372642 167.688775 
L 139.914554 168.366695 
L 143.456466 169.209114 
L 146.998379 170.26609 
L 150.540291 171.557081 
L 154.082203 173.062781 
L 157.624115 174.737917 
L 161.166028 176.547298 
L 164.70794 178.508255 
L 168.249852 180.706739 
L 171.791764 183.263494 
L 175.333677 186.26348 
L 178.875589 189.697876 
L 182.417501 193.466981 
L 185.959413 197.446215 
L 189.501326 201.562103 
L 193.043238 205.812606 
L 196.58515 210.214912 
L 200.127062 214.733152 
L 203.668975 219.26134 
L 207.210887 223.687287 
L 210.752799 227.987095 
L 214.294711 232.269392 
L 217.836624 236.728458 
L 221.378536 241.535306 
L 224.920448 246.737929 
L 228.46236 252.230639 
L 232.004273 257.801539 
L 235.546185 263.213092 
L 239.088097 268.253029 
L 242.630009 272.728651 
L 246.171922 276.439273 
L 249.713834 279.189612 
L 253.255746 280.864958 
L 256.797658 281.509888 
L 260.339571 281.319635 
L 263.881483 280.517696 
L 267.423395 279.20481 
L 270.965307 277.308582 
L 274.50722 274.681364 
L 278.049132 271.260498 
L 281.591044 267.153909 
L 285.132956 262.592817 
L 288.674869 257.812766 
L 292.216781 252.964791 
L 295.758693 248.10068 
L 299.300606 243.202128 
L 302.842518 238.209313 
L 306.38443 233.042274 
L 309.926342 227.636752 
L 313.468255 221.998698 
L 317.010167 216.244445 
L 320.552079 210.587191 
L 324.093991 205.269332 
L 327.635904 200.484628 
L 331.177816 196.336626 
L 334.719728 192.84044 
L 338.26164 189.940098 
L 341.803553 187.518778 
L 345.345465 185.409668 
L 348.887377 183.428376 
L 352.429289 181.42725 
L 355.971202 179.34372 
L 359.513114 177.212198 
L 363.055026 175.134176 
L 366.596938 173.22753 
L 370.138851 171.581802 
L 373.680763 170.234112 
L 377.222675 169.166655 
L 380.764587 168.32121 
L 384.3065 167.624954 
L 387.848412 167.018882 
L 391.390324 166.476445 
L 394.932236 166.002739 
L 398.474149 165.615797 
L 402.016061 165.323497 
L 405.557973 165.111807 
L 409.099885 164.950329 
L 412.641798 164.80782 
L 416.18371 164.664918 
L 419.725622 164.516836 
L 423.267534 164.368265 
L 423.267534 163.215598 
L 423.267534 163.215598 
L 419.725622 163.067027 
L 416.18371 162.918945 
L 412.641798 162.776043 
L 409.099885 162.633534 
L 405.557973 162.472056 
L 402.016061 162.260366 
L 398.474149 161.968066 
L 394.932236 161.581124 
L 391.390324 161.107418 
L 387.848412 160.564981 
L 384.3065 159.958909 
L 380.764587 159.262653 
L 377.222675 158.417208 
L 373.680763 157.349751 
L 370.138851 156.002061 
L 366.596938 154.356333 
L 363.055026 152.449687 
L 359.513114 150.371665 
L 355.971202 148.240143 
L 352.429289 146.156613 
L 348.887377 144.155487 
L 345.345465 142.174195 
L 341.803553 140.065085 
L 338.26164 137.643765 
L 334.719728 134.743423 
L 331.177816 131.247237 
L 327.635904 127.099235 
L 324.093991 122.314531 
L 320.552079 116.996672 
L 317.010167 111.339418 
L 313.468255 105.585165 
L 309.926342 99.947111 
L 306.38443 94.541589 
L 302.842518 89.37455 
L 299.300606 84.381735 
L 295.758693 79.483183 
L 292.216781 74.619072 
L 288.674869 69.771097 
L 285.132956 64.991046 
L 281.591044 60.429954 
L 278.049132 56.323365 
L 274.50722 52.902499 
L 270.965307 50.275281 
L 267.423395 48.379053 
L 263.881483 47.066167 
L 260.339571 46.264228 
L 256.797658 46.073975 
L 253.255746 46.718905 
L 249.713834 48.394251 
L 246.171922 51.14459 
L 242.630009 54.855212 
L 239.088097 59.330834 
L 235.546185 64.370771 
L 232.004273 69.782324 
L 228.46236 75.353224 
L 224.920448 80.845934 
L 221.378536 86.048557 
L 217.836624 90.855405 
L 214.294711 95.314471 
L 210.752799 99.596768 
L 207.210887 103.896576 
L 203.668975 108.322523 
L 200.127062 112.850711 
L 196.58515 117.368951 
L 193.043238 121.771257 
L 189.501326 126.02176 
L 185.959413 130.137648 
L 182.417501 134.116882 
L 178.875589 137.885987 
L 175.333677 141.320383 
L 171.791764 144.320369 
L 168.249852 146.877124 
L 164.70794 149.075608 
L 161.166028 151.036565 
L 157.624115 152.845946 
L 154.082203 154.521082 
L 150.540291 156.026782 
L 146.998379 157.317773 
L 143.456466 158.374749 
L 139.914554 159.217168 
L 136.372642 159.895088 
L 132.83073 160.469729 
L 129.288817 160.991338 
L 125.746905 161.482226 
L 122.204993 161.932984 
L 118.663081 162.315073 
L 115.121168 162.603036 
L 111.579256 162.792729 
L 108.037344 162.905258 
L 104.495432 162.976621 
L 100.953519 163.041412 
L 97.411607 163.119918 
L 93.869695 163.213583 
L 90.327783 163.309085 
L 86.78587 163.388248 
L 83.243958 163.43914 
L 79.702046 163.463041 
L 76.160134 163.47358 
L 72.618221 163.488701 
z
" clip-path="url(#pf629d7ff92)" style="fill: #1f77b4; fill-opacity: 0.3"/>
   </g>
   <g id="LineCollection_1">
    <path d="M 259.681358 222.65091 
L 259.681358 104.932953 
" clip-path="url(#pf629d7ff92)" style="fill: none; stroke: #1f77b4; stroke-width: 1.5"/>
   </g>
   <g id="LineCollection_2">
    <path d="M 423.267534 222.65091 
L 423.267534 104.932953 
" clip-path="url(#pf629d7ff92)" style="fill: none; stroke: #1f77b4; stroke-width: 1.5"/>
   </g>
   <g id="LineCollection_3">
    <path d="M 72.618221 222.65091 
L 72.618221 104.932953 
" clip-path="url(#pf629d7ff92)" style="fill: none; stroke: #1f77b4; stroke-width: 1.5"/>
   </g>
   <g id="LineCollection_4">
    <path d="M 72.618221 163.791932 
L 423.267534 163.791932 
" clip-path="url(#pf629d7ff92)" style="fill: none; stroke: #1f77b4; stroke-width: 1.5"/>
   </g>
   <g id="patch_3">
    <path d="M 55.085756 293.281683 
L 55.085756 34.30218 
" style="fill: none; stroke: #262626; stroke-width: 1.25; stroke-linejoin: miter; stroke-linecap: square"/>
   </g>
   <g id="patch_4">
    <path d="M 440.8 293.281683 
L 440.8 34.30218 
" style="fill: none; stroke: #262626; stroke-width: 1.25; stroke-linejoin: miter; stroke-linecap: square"/>
   </g>
   <g id="patch_5">
    <path d="M 55.085756 293.281683 
L 440.8 293.281683 
" style="fill: none; stroke: #262626; stroke-width: 1.25; stroke-linejoin: miter; stroke-linecap: square"/>
   </g>
   <g id="patch_6">
    <path d="M 55.085756 34.30218 
L 440.8 34.30218 
" style="fill: none; stroke: #262626; stroke-width: 1.25; stroke-linejoin: miter; stroke-linecap: square"/>
   </g>
   <g id="text_14">
    <!-- Laser power fluctuation over 1hr -->
    <g style="fill: #262626" transform="translate(168.825224 28.30218) scale(0.12 -0.12)">
     <defs>
      <path id="CMSS17-4c" d="M 1670 414 
C 1594 414 1517 414 1440 414 
L 1101 414 
L 1101 4416 
L 563 4416 
L 563 0 
L 3002 0 
L 3002 414 
L 1670 414 
z
" transform="scale(0.015625)"/>
      <path id="CMSS17-61" d="M 2406 1791 
C 2406 2392 1978 2808 1402 2808 
C 1120 2808 813 2757 461 2553 
L 499 2135 
C 659 2248 934 2432 1395 2432 
C 1722 2432 1920 2180 1920 1782 
L 1920 1536 
C 896 1536 256 1238 256 726 
C 256 461 416 -64 947 -64 
C 1043 -64 1562 -64 1933 217 
L 1933 -19 
L 2406 -19 
L 2406 1791 
z
M 1920 816 
C 1920 701 1920 548 1728 434 
C 1562 325 1350 325 1261 325 
C 941 325 723 511 723 744 
C 723 1211 1722 1211 1920 1211 
L 1920 816 
z
" transform="scale(0.015625)"/>
      <path id="CMSS17-70" d="M 966 333 
C 1178 129 1466 -5 1773 -5 
C 2368 -5 2880 603 2880 1412 
C 2880 2159 2496 2816 1946 2816 
C 1626 2816 1242 2702 954 2472 
L 954 2765 
L 480 2765 
L 480 -1216 
L 966 -1216 
L 966 333 
z
M 966 2100 
C 1018 2176 1235 2415 1587 2415 
C 2035 2415 2394 1960 2394 1412 
C 2394 787 1958 384 1530 384 
C 1402 384 1267 415 1139 523 
C 966 674 966 768 966 857 
L 966 2100 
z
" transform="scale(0.015625)"/>
      <path id="CMSS17-d" d="M 1075 2368 
L 1773 2368 
L 1773 2737 
L 1062 2737 
L 1062 3578 
C 1062 3919 1216 4092 1421 4092 
C 1594 4092 1754 4021 1773 4009 
L 1773 4429 
C 1722 4442 1574 4480 1421 4480 
C 941 4480 602 3993 602 3372 
L 602 2737 
L 160 2737 
L 160 2368 
L 602 2368 
L 602 0 
L 1075 0 
L 1075 2368 
z
M 2733 4429 
L 2259 4429 
L 2259 0 
L 2733 0 
L 2733 4429 
z
" transform="scale(0.015625)"/>
      <path id="CMSS17-63" d="M 2464 2541 
C 2464 2585 2170 2714 2093 2739 
C 1882 2816 1613 2816 1542 2816 
C 710 2816 211 2093 211 1363 
C 211 595 768 -64 1517 -64 
C 1946 -64 2253 76 2502 242 
L 2464 664 
C 2189 453 1869 337 1523 337 
C 1024 337 698 774 698 1369 
C 698 1831 909 2414 1549 2414 
C 1901 2414 2099 2343 2394 2145 
L 2464 2541 
z
" transform="scale(0.015625)"/>
      <path id="CMSS17-69" d="M 979 4183 
L 442 4183 
L 442 3648 
L 979 3648 
L 979 4183 
z
M 947 2739 
L 474 2739 
L 474 0 
L 947 0 
L 947 2739 
z
" transform="scale(0.015625)"/>
      <path id="CMSS17-76" d="M 2675 2752 
L 2176 2752 
L 1747 1556 
C 1613 1165 1421 627 1389 352 
L 1382 352 
C 1370 468 1318 634 1286 749 
C 1248 890 1197 1056 1158 1172 
L 595 2752 
L 83 2752 
L 1094 0 
L 1664 0 
L 2675 2752 
z
" transform="scale(0.015625)"/>
      <path id="CMSS17-31" d="M 1818 4288 
L 1696 4288 
C 1350 3940 947 3890 538 3890 
L 538 3520 
C 723 3520 1024 3520 1325 3667 
L 1325 369 
L 570 369 
L 570 0 
L 2573 0 
L 2573 369 
L 1818 369 
L 1818 4288 
z
" transform="scale(0.015625)"/>
      <path id="CMSS17-68" d="M 2618 1891 
C 2618 2292 2522 2820 1798 2820 
C 1395 2820 1133 2623 947 2407 
L 947 4448 
L 474 4448 
L 474 32 
L 960 32 
L 960 1573 
C 960 1973 1114 2432 1549 2432 
C 2112 2432 2131 2056 2131 1839 
L 2131 32 
L 2618 32 
L 2618 1891 
z
" transform="scale(0.015625)"/>
     </defs>
     <use xlink:href="#CMSS17-4c" transform="scale(0.996264)"/>
     <use xlink:href="#CMSS17-61" transform="translate(50.687105 0) scale(0.996264)"/>
     <use xlink:href="#CMSS17-73" transform="translate(95.609026 0) scale(0.996264)"/>
     <use xlink:href="#CMSS17-65" transform="translate(131.522568 0) scale(0.996264)"/>
     <use xlink:href="#CMSS17-72" transform="translate(173.16139 0) scale(0.996264)"/>
     <use xlink:href="#CMSS17-70" transform="translate(236.300275 0) scale(0.996264)"/>
     <use xlink:href="#CMSS17-6f" transform="translate(287.107657 0) scale(0.996264)"/>
     <use xlink:href="#CMSS17-77" transform="translate(331.348827 0) scale(0.996264)"/>
     <use xlink:href="#CMSS17-65" transform="translate(392.565918 0) scale(0.996264)"/>
     <use xlink:href="#CMSS17-72" transform="translate(434.20474 0) scale(0.996264)"/>
     <use xlink:href="#CMSS17-d" transform="translate(497.343625 0) scale(0.996264)"/>
     <use xlink:href="#CMSS17-75" transform="translate(547.470363 0) scale(0.996264)"/>
     <use xlink:href="#CMSS17-63" transform="translate(595.675306 0) scale(0.996264)"/>
     <use xlink:href="#CMSS17-74" transform="translate(637.314128 0) scale(0.996264)"/>
     <use xlink:href="#CMSS17-75" transform="translate(671.145694 0) scale(0.996264)"/>
     <use xlink:href="#CMSS17-61" transform="translate(719.350638 0) scale(0.996264)"/>
     <use xlink:href="#CMSS17-74" transform="translate(764.272558 0) scale(0.996264)"/>
     <use xlink:href="#CMSS17-69" transform="translate(798.104125 0) scale(0.996264)"/>
     <use xlink:href="#CMSS17-6f" transform="translate(820.284848 0) scale(0.996264)"/>
     <use xlink:href="#CMSS17-6e" transform="translate(867.128471 0) scale(0.996264)"/>
     <use xlink:href="#CMSS17-6f" transform="translate(946.562527 0) scale(0.996264)"/>
     <use xlink:href="#CMSS17-76" transform="translate(993.406151 0) scale(0.996264)"/>
     <use xlink:href="#CMSS17-65" transform="translate(1036.406293 0) scale(0.996264)"/>
     <use xlink:href="#CMSS17-72" transform="translate(1078.045115 0) scale(0.996264)"/>
     <use xlink:href="#CMSS17-31" transform="translate(1141.184 0) scale(0.996264)"/>
     <use xlink:href="#CMSS17-68" transform="translate(1188.027623 0) scale(0.996264)"/>
     <use xlink:href="#CMSS17-72" transform="translate(1236.232567 0) scale(0.996264)"/>
    </g>
   </g>
   <g id="legend_1"/>
  </g>
 </g>
 <defs>
  <clipPath id="pf629d7ff92">
   <rect x="55.085756" y="34.30218" width="385.714244" height="258.979503"/>
  </clipPath>
 </defs>
</svg>
